HIERARCHY
ROOT Hips
{
	OFFSET 0.00000 0.00000 0.00000
	CHANNELS 6 Xposition Yposition Zposition Yrotation Zrotation Xrotation 
	JOINT Lumbar
	{
		OFFSET 0 0 0
		CHANNELS 3 Zrotation Xrotation Yrotation
		JOINT Neck
		{
			OFFSET 0.00 0.2701 0.00
			CHANNELS 3 Zrotation Xrotation Yrotation
			End Site
			{
				OFFSET 0.00 0.1379 0.00
			}
		}
		JOINT RightShoulder
		{
			OFFSET 0.0119 0.2289 0.1181
			CHANNELS 3 Zrotation Xrotation Yrotation
			JOINT RightElbow
			{
				OFFSET 0.00 -0.1475 0.00
				CHANNELS 2 Zrotation Yrotation
				JOINT RightWrist
				{
					OFFSET 0.00 -0.1605 0.00
					CHANNELS 2 Zrotation Xrotation
					End Site
					{
						OFFSET 0.0040 -0.1068 0.0006
					}
				}
			}
		}
		JOINT LeftShoulder
		{
			OFFSET 0.0119 0.2289 -0.1181
			CHANNELS 3 Zrotation Xrotation Yrotation
			JOINT LeftElbow
			{
				OFFSET 0.00 -0.1475 0.00
				CHANNELS 2 Zrotation Yrotation
				JOINT LeftWrist
				{
					OFFSET 0.00 -0.1605 0.00
					CHANNELS 2 Zrotation Xrotation
					End Site
					{
						OFFSET 0.0040 -0.1068 -0.0006
					}
				}
			}
		}
	}
	JOINT RightHip
	{
		OFFSET 0.0316 -0.0424 0.0458
		CHANNELS 3 Zrotation Xrotation Yrotation
		JOINT RightKnee
		{
			OFFSET 0.00 -0.2438 0.00
			CHANNELS 1 Zrotation
			JOINT RightAnkle
			{
				OFFSET 0.00 -0.2449 0.00
				CHANNELS 3 Zrotation Xrotation Yrotation
				End Site
				{
					OFFSET 0.1237 -0.0542 0.0051
				}
			}
		}
	}
	JOINT LeftHip
	{
		OFFSET 0.0316 -0.0424 -0.0458
		CHANNELS 3 Zrotation Xrotation Yrotation
		JOINT LeftKnee
		{
			OFFSET 0.00 -0.2438 0.00
			CHANNELS 1 Zrotation
			JOINT LeftAnkle
			{
				OFFSET 0.00 -0.2449 0.00
				CHANNELS 3 Zrotation Xrotation Yrotation
				End Site
				{
					OFFSET 0.1237 -0.0542 -0.0051
				}
			}
		}
	}
}
MOTION
Frames: 25
Frame Time: 0.02
0.00131 0.56613 0.15941 154.54445 0 -0.65738 -13.72369 8.78093 2.26223 -13.25838 1.11467 4.55715 23.68195 -19.46448 5.03176 14.05166 84.61939 -7.1635 -6.57542 15.70911 16.58521 -21.91738 15.64007 -80.1039 -7.91672 2.32918 22.29066 -11.29503 -15.982 -32.78693 -7.95299 -2.55416 -2.78653 1.73577 -8.34323 12.04077 -9.67562 7.96913 5.28358 5.27044
0.00281 0.56604 0.16107 154.68641 0 -0.58984 -14.7797 9.37596 2.49848 -12.62129 1.09633 4.38019 23.4266 -19.37842 5.16142 14.11647 84.59085 -7.39039 -6.74511 15.28998 16.69797 -22.87052 16.03842 -80.23327 -8.1647 2.45114 22.24278 -11.40374 -16.08889 -32.39012 -8.12154 -2.53622 -2.81738 1.78902 -8.49007 12.16103 -9.38153 7.67864 5.02567 4.97483
0.00427 0.56597 0.16277 154.76543 0 -0.5372 -15.84439 9.97747 2.85083 -12.07133 1.05268 4.233 23.20867 -19.30225 5.31447 14.18489 84.60396 -7.60971 -6.89841 15.02212 16.75618 -23.80254 16.54729 -80.42809 -8.48437 2.63266 22.20484 -11.60086 -16.53478 -32.01978 -8.33146 -2.48836 -2.58738 1.83751 -8.62796 12.31597 -9.08541 7.35885 4.75874 4.69301
0.00572 0.56588 0.16442 154.87219 0 -0.47503 -16.89052 10.56859 3.1444 -11.50201 1.02103 4.08115 22.98394 -19.22287 5.45305 14.24523 84.59565 -7.82766 -7.0533 14.70319 16.83059 -24.72837 17.0036 -80.5875 -8.77128 2.78972 22.16289 -11.76118 -16.82747 -31.64611 -8.51315 -2.4537 -2.4703 1.88724 -8.77149 12.44957 -8.79535 7.05831 4.50329 4.41193
0.0073 0.56582 0.16619 154.98231 0 -0.42356 -18.00281 11.19011 3.46194 -10.84692 0.99042 3.89281 22.71862 -19.14291 5.62599 14.33578 84.60086 -8.06776 -7.23489 14.31061 16.93785 -25.72616 17.46998 -80.76522 -9.05817 2.93663 22.11733 -11.9071 -17.11785 -31.23219 -8.73341 -2.42026 -2.37852 1.93907 -8.90945 12.60777 -8.47857 6.73097 4.21551 4.09951
0.0086 0.56571 0.16771 155.07093 0 -0.35411 -18.97633 11.75039 3.75748 -10.39149 0.95043 3.78655 22.5456 -19.06466 5.72468 14.36406 84.58707 -8.26041 -7.3567 14.10674 16.96524 -26.56713 17.94133 -80.92593 -9.36246 3.11783 22.08185 -12.10331 -17.49216 -30.90966 -8.88379 -2.37755 -2.17278 1.98591 -9.05602 12.72203 -8.21905 6.4533 3.9934 3.85658
0.00916 0.56549 0.16859 155.11135 0 -0.22634 -19.58034 12.13814 3.96637 -10.46372 0.89015 3.90702 22.62031 -18.98801 5.62904 14.20744 84.5054 -8.30885 -7.31138 14.38993 16.78373 -26.97874 18.40203 -80.97985 -9.69682 3.38743 22.07614 -12.42608 -18.02627 -30.8344 -8.82901 -2.31397 -1.7002 2.02225 -9.23442 12.71303 -8.11639 6.31858 3.95478 3.7992
0.00945 0.56522 0.16921 155.13307 0 -0.08096 -20.0408 12.46444 4.1489 -10.73415 0.82059 4.10744 22.78587 -18.91192 5.453 13.9896 84.40369 -8.31189 -7.20721 14.85694 16.52509 -27.23296 18.86343 -81.02169 -10.04641 3.6879 22.07972 -12.79483 -18.63103 -30.85059 -8.70298 -2.24257 -1.1245 2.05362 -9.42064 12.65725 -8.07251 6.23542 3.98276 3.81208
0.00984 0.56498 0.16994 155.16613 0 0.05298 -20.55645 12.82025 4.34209 -10.91563 0.75566 4.26662 22.90823 -18.83568 5.29988 13.80717 84.31396 -8.34549 -7.13365 15.23803 16.30255 -27.55918 19.32276 -81.0995 -10.3894 3.96878 22.07638 -13.13651 -19.19616 -30.82435 -8.61115 -2.17651 -0.60601 2.08617 -9.59939 12.6186 -8.00345 6.12972 3.98041 3.79486
0.0103 0.56471 0.17073 155.18503 0 0.20087 -21.11577 13.16977 4.54485 -11.09615 0.68965 4.44835 23.04017 -18.76047 5.20298 13.59321 84.21335 -8.33813 -7.04337 15.63539 16.0711 -27.88196 19.79329 -81.05556 -10.73345 4.27525 22.08456 -13.50722 -19.80489 -30.80209 -8.51325 -2.10197 -0.03468 2.12306 -9.79442 12.59888 -7.92744 6.01893 3.97787 3.77016
0.01057 0.5645 0.17132 155.22976 0 0.32416 -21.54881 13.51747 4.71995 -11.32368 0.62215 4.60071 23.17301 -18.68179 4.97251 13.42993 84.13045 -8.40394 -6.97396 16.03938 15.84376 -28.17579 20.23926 -81.25561 -11.07806 4.53494 22.07104 -13.82735 -20.3352 -30.79361 -8.41027 -2.04348 0.44755 2.14981 -9.95747 12.52784 -7.8803 5.93172 3.99181 3.77781
0.01041 0.56445 0.17143 155.35115 0 0.37459 -21.67724 13.87725 4.82446 -11.64022 0.56852 4.66082 23.28757 -18.60441 4.36617 13.42481 84.09781 -8.69509 -6.97824 16.42624 15.62022 -28.41932 20.61616 -82.18288 -11.41933 4.65759 21.99356 -13.99555 -20.62983 -30.79532 -8.31295 -2.0327 0.65884 2.14953 -10.03047 12.32919 -7.89554 5.89434 4.03385 3.85527
0.01006 0.56447 0.17135 155.49933 0 0.39988 -21.68172 14.23688 4.90168 -11.99538 0.51083 4.68694 23.39931 -18.52143 3.63282 13.4721 84.08399 -9.05923 -7.0053 16.81103 15.40876 -28.64084 20.96787 -83.34651 -11.7604 4.73177 21.89427 -14.11116 -20.84183 -30.80884 -8.21236 -2.03822 0.77577 2.13924 -10.07106 12.07993 -7.93835 5.87963 4.09039 3.96318
0.0098 0.56445 0.17134 155.63507 0 0.43715 -21.73714 14.59521 4.9911 -12.32737 0.4449 4.72286 23.51136 -18.43363 2.97516 13.49335 84.0639 -9.3819 -7.02096 17.18962 15.20927 -28.87841 21.33136 -84.36826 -12.10205 4.82813 21.80595 -14.2509 -21.09103 -30.8202 -8.11156 -2.03548 0.93407 2.13375 -10.12636 11.85183 -7.9706 5.85638 4.14116 4.05867
0.00954 0.56444 0.17136 155.77133 0 0.47259 -21.81069 14.95727 5.08012 -12.69002 0.42149 4.78517 23.63121 -18.37672 2.23955 13.52216 84.03419 -9.73779 -7.03906 17.60436 14.93301 -29.08518 21.69387 -85.53447 -12.44257 4.92526 21.71318 -14.39073 -21.34403 -30.82047 -8.01538 -2.03608 1.10157 2.12717 -10.18182 11.62956 -7.99678 5.82722 4.191 4.15084
0.00923 0.56444 0.17129 155.91301 0 0.50578 -21.81843 15.3122 5.16434 -12.99544 0.30831 4.78371 23.73234 -18.25441 1.63632 13.54805 84.02839 -10.04269 -7.05813 17.94151 14.82095 -29.35262 22.05199 -86.45692 -12.78472 5.00847 21.6248 -14.51802 -21.56902 -30.8464 -7.90982 -2.03366 1.22733 2.12035 -10.22935 11.38413 -8.04113 5.81538 4.24508 4.25598
0.00881 0.56442 0.17101 156.06401 0 0.53773 -21.67941 15.6486 5.23747 -13.13165 -0.04835 4.61158 23.78747 -17.95077 1.4374 13.55697 84.09137 -10.18658 -7.07572 18.05826 15.15604 -29.79562 22.40754 -86.64109 -13.13537 5.06812 21.55023 -14.61663 -21.73105 -30.93164 -7.77873 -2.01944 1.24924 2.11705 -10.26112 11.08438 -8.13086 5.84295 4.30932 4.39119
0.00834 0.5644 0.17064 156.21931 0 0.56844 -21.47836 15.97773 5.30757 -13.20819 -0.49555 4.37668 23.82258 -17.58205 1.37487 13.56075 84.17659 -10.27711 -7.09356 18.09709 15.65676 -30.30019 22.75882 -86.5733 -13.48696 5.11464 21.48155 -14.70534 -21.868 -31.04339 -7.63878 -2.0016 1.23372 2.11359 -10.2863 10.76402 -8.23732 5.88736 4.37665 4.53765
0.00788 0.56438 0.17032 156.37231 0 0.60039 -21.30325 16.31 5.38228 -13.3122 -0.90382 4.17191 23.86294 -17.24433 1.24551 13.56455 84.24675 -10.39411 -7.11064 18.1753 16.08448 -30.77633 23.10992 -86.62558 -13.83527 5.16508 21.41237 -14.80311 -22.02044 -31.14828 -7.50349 -1.98512 1.24284 2.10902 -10.31566 10.45492 -8.33447 5.92579 4.44081 4.67758
0.00744 0.56437 0.16997 156.52828 0 0.62858 -21.13287 16.64369 5.44283 -13.41635 -1.30393 3.95886 23.91897 -16.8998 1.13293 13.57971 84.33802 -10.50509 -7.13112 18.23771 16.50385 -31.25572 23.46941 -86.66217 -14.1951 5.22272 21.33286 -14.88051 -22.15457 -31.23194 -7.36525 -1.97031 1.21784 2.10893 -10.33898 10.1353 -8.43961 5.95833 4.51273 4.82491
0.00697 0.56434 0.16966 156.67799 0 0.66467 -20.94 16.97175 5.53193 -13.50532 -1.74119 3.74905 23.93829 -16.55485 1.01845 13.56956 84.39093 -10.61395 -7.1444 18.3134 16.97872 -31.74046 23.81035 -86.66907 -14.53181 5.26258 21.27701 -14.99778 -22.31968 -31.3657 -7.23124 -1.95107 1.2546 2.09982 -10.37363 9.8343 -8.53196 6.00639 4.56934 4.95872
0.00638 0.56423 0.16949 156.81554 0 0.7225 -20.69716 17.29398 5.70581 -13.5683 -2.26953 3.55974 23.85549 -16.21819 0.87537 13.48867 84.32757 -10.73881 -7.13666 18.45433 17.57527 -32.24961 24.10403 -86.64939 -14.7982 5.2595 21.28107 -15.23516 -22.59654 -31.633 -7.11025 -1.91944 1.4854 2.06387 -10.44215 9.58196 -8.58244 6.09689 4.57984 5.05553
0.00576 0.5641 0.16937 156.94535 0 0.78842 -20.43509 17.60923 5.90764 -13.61766 -2.82981 3.37678 23.73754 -15.88478 0.72482 13.38265 84.22576 -10.86147 -7.12172 18.60959 18.21992 -32.75769 24.37849 -86.60818 -15.04193 5.23874 21.30942 -15.51169 -22.90233 -31.94914 -6.99409 -1.88361 1.77747 2.01925 -10.52219 9.35082 -8.61974 6.20162 4.57525 5.13766
0.00517 0.56398 0.16922 157.07449 0 0.85112 -20.18439 17.92253 6.09348 -13.67214 -3.36881 3.19354 23.63936 -15.55394 0.57136 13.28928 84.14456 -10.9789 -7.11073 18.75198 18.83703 -33.24998 24.66027 -86.58011 -15.30083 5.2243 21.32959 -15.76574 -23.18186 -32.24214 -6.87622 -1.85027 2.03248 1.97991 -10.59663 9.11535 -8.66459 6.29723 4.57955 5.22429
0.00454 0.56387 0.16909 157.22142 0 0.91217 -19.92011 18.25747 6.29332 -13.7289 -3.94077 2.99692 23.52431 -15.20302 0.44775 13.19052 84.0505 -11.12046 -7.09709 18.91826 19.48522 -33.81246 24.94894 -86.53053 -15.54137 5.21634 21.33856 -16.03979 -23.51494 -32.54128 -6.75568 -1.81429 2.32485 1.93487 -10.67278 8.85668 -8.70359 6.40454 4.57558 5.32034
